<svg width="33" height="32" viewBox="0 0 33 32" fill="none" xmlns="http://www.w3.org/2000/svg">
<path d="M8.81391 27.5001C8.43017 27.4994 8.05323 27.3988 7.72016 27.2082C6.97016 26.7832 6.50391 25.9582 6.50391 25.0626V6.93761C6.50391 6.03949 6.97016 5.21699 7.72016 4.79199C8.06116 4.59601 8.44854 4.49523 8.84182 4.50017C9.23509 4.50512 9.61982 4.61562 9.95578 4.82011L25.4464 14.0926C25.7692 14.295 26.0354 14.5761 26.2199 14.9096C26.4043 15.243 26.5011 15.6178 26.5011 15.9989C26.5011 16.3799 26.4043 16.7547 26.2199 17.0882C26.0354 17.4216 25.7692 17.7027 25.4464 17.9051L9.95328 27.1801C9.60947 27.388 9.21566 27.4986 8.81391 27.5001Z" fill="white"/>
</svg>
