<svg width="27" height="27" viewBox="0 0 27 27" fill="none" xmlns="http://www.w3.org/2000/svg">
<path d="M13.4998 0C8.25774 0 3.99316 4.3316 3.99316 9.65561V17.3447C3.99316 22.6687 8.25774 27 13.4998 27C18.7415 27 23.0064 22.6818 23.0064 17.3742V9.65561C23.0064 4.3316 18.7415 0 13.4998 0ZM21.2183 17.3742C21.2183 21.696 17.756 25.2119 13.4998 25.2119C9.24387 25.2119 5.78128 21.6826 5.78128 17.3444V9.65561C5.78128 5.31742 9.24387 1.78806 13.4998 1.78806C17.756 1.78806 21.2183 5.31742 21.2183 9.65561V17.3742Z" fill="white"/>
<path d="M19 2L13 1V12H21.5V7L19 2Z" fill="white"/>
</svg>
